<?xml version="1.0" standalone="no"?>
<!DOCTYPE svg PUBLIC "-//W3C//DTD SVG 20010904//EN"
 "http://www.w3.org/TR/2001/REC-SVG-20010904/DTD/svg10.dtd">
<svg version="1.0" xmlns="http://www.w3.org/2000/svg"
 width="64.000000pt" height="64.000000pt" viewBox="0 0 64.000000 64.000000"
 preserveAspectRatio="xMidYMid meet">

<g transform="translate(0.000000,64.000000) scale(0.100000,-0.100000)"
fill="#000000" stroke="none">
<path d="M155 361 c-179 -80 -185 -89 -85 -137 l65 -31 5 -64 c5 -59 7 -65 35
-79 42 -21 248 -21 290 0 28 14 30 20 33 75 3 60 17 85 49 85 18 0 16 -27 -2
-34 -10 -3 -15 -19 -15 -44 0 -41 14 -62 42 -62 35 0 52 76 23 100 -25 21 -18
53 16 72 53 31 36 47 -126 120 -83 36 -157 67 -165 66 -8 0 -82 -30 -165 -67z
m282 -8 c110 -47 113 -49 113 -79 0 -20 -6 -34 -16 -38 -27 -10 -34 -7 -34 20
0 40 -53 57 -180 57 -127 0 -180 -17 -180 -57 0 -15 -4 -26 -9 -26 -16 0 -104
40 -99 45 7 7 272 124 283 125 6 0 61 -21 122 -47z m6 -81 c26 -11 27 -15 27
-81 l0 -69 -42 10 c-45 10 -221 5 -251 -7 -16 -7 -18 -1 -15 66 l3 74 45 12
c52 14 192 11 233 -5z m161 -3 c-8 -14 -24 -10 -24 6 0 9 6 12 15 9 8 -4 12
-10 9 -15z m-26 -144 c-2 -14 -7 -26 -13 -26 -5 0 -11 12 -13 26 -2 18 1 25
13 25 12 0 15 -7 13 -25z m-223 -26 c-56 -11 -103 -11 -110 1 -4 6 22 10 72 9
68 -1 73 -2 38 -10z"/>
<path d="M410 215 c0 -8 5 -15 10 -15 6 0 10 7 10 15 0 8 -4 15 -10 15 -5 0
-10 -7 -10 -15z"/>
<path d="M370 195 c0 -8 5 -15 10 -15 6 0 10 7 10 15 0 8 -4 15 -10 15 -5 0
-10 -7 -10 -15z"/>
<path d="M430 166 c0 -8 5 -18 10 -21 6 -3 10 3 10 14 0 12 -4 21 -10 21 -5 0
-10 -6 -10 -14z"/>
</g>
</svg>
